<svg xmlns="http://www.w3.org/2000/svg" viewBox="0 0 1440 320"><path fill="#1A6195" fill-opacity="1" d="M0,128L34.3,149.3C68.6,171,137,213,206,208C274.3,203,343,149,411,133.3C480,117,549,139,617,149.3C685.7,160,754,160,823,138.7C891.4,117,960,75,1029,90.7C1097.1,107,1166,181,1234,213.3C1302.9,245,1371,235,1406,229.3L1440,224L1440,320L1405.7,320C1371.4,320,1303,320,1234,320C1165.7,320,1097,320,1029,320C960,320,891,320,823,320C754.3,320,686,320,617,320C548.6,320,480,320,411,320C342.9,320,274,320,206,320C137.1,320,69,320,34,320L0,320Z"></path></svg>